<svg xmlns="http://www.w3.org/2000/svg" viewBox="-15 -5 128 128"><defs><linearGradient id="main"><stop offset="0%" style="stop-color:#f12711;stop-opacity:1"/><stop offset="100%" style="stop-color:#f5af19;stop-opacity:1"/></linearGradient></defs><g><rect width="128" height="128" fill="#FF3E00" rx="16" transform="translate(-15,-5)"/></g><path fill="#fff" d="M91.8 15.6C80.9-0.1 59.2-4.7 43.6 5.2L16.1 22.8C8.6 27.5 3.4 35.2 1.9 43.9c-1.3 7.3-0.2 14.8 3.3 21.3 -2.4 3.6-4 7.6-4.7 11.8 -1.6 8.9 0.5 18.1 5.7 25.4 11 15.7 32.6 20.3 48.2 10.4l27.5-17.5c7.5-4.7 12.7-12.4 14.2-21.1 1.3-7.3 0.2-14.8-3.3-21.3 2.4-3.6 4-7.6 4.7-11.8C99.2 32.1 97.1 22.9 91.8 15.6"/><path fill="#FF3E00" d="M40.9 103.9c-8.9 2.3-18.2-1.2-23.4-8.7 -3.2-4.4-4.4-9.9-3.5-15.3 0.2-0.9 0.4-1.7 0.6-2.6l0.5-1.6 1.4 1c3.3 2.4 6.9 4.2 10.8 5.4l1 0.3 -0.1 1c-0.1 1.4 0.3 2.9 1.1 4.1 1.6 2.3 4.4 3.4 7.1 2.7 0.6-0.2 1.2-0.4 1.7-0.7L65.5 72c1.4-0.9 2.3-2.2 2.6-3.8 0.3-1.6-0.1-3.3-1-4.6 -1.6-2.3-4.4-3.3-7.1-2.6 -0.6 0.2-1.2 0.4-1.7 0.7l-10.5 6.7c-1.7 1.1-3.6 1.9-5.6 2.4 -8.9 2.3-18.2-1.2-23.4-8.7 -3.1-4.4-4.4-9.9-3.4-15.3 0.9-5.2 4.1-9.9 8.6-12.7l27.5-17.5c1.7-1.1 3.6-1.9 5.6-2.5 8.9-2.3 18.2 1.2 23.4 8.7 3.2 4.4 4.4 9.9 3.5 15.3 -0.2 0.9-0.4 1.7-0.7 2.6l-0.5 1.6 -1.4-1c-3.3-2.4-6.9-4.2-10.8-5.4l-1-0.3 0.1-1c0.1-1.4-0.3-2.9-1.1-4.1 -1.6-2.3-4.4-3.3-7.1-2.6 -0.6 0.2-1.2 0.4-1.7 0.7L32.4 46.1c-1.4 0.9-2.3 2.2-2.6 3.8s0.1 3.3 1 4.6c1.6 2.3 4.4 3.3 7.1 2.6 0.6-0.2 1.2-0.4 1.7-0.7l10.5-6.7c1.7-1.1 3.6-1.9 5.6-2.5 8.9-2.3 18.2 1.2 23.4 8.7 3.2 4.4 4.4 9.9 3.5 15.3 -0.9 5.2-4.1 9.9-8.6 12.7l-27.5 17.5C44.8 102.5 42.9 103.3 40.9 103.9"/></svg>