<svg
  width="300"
  height="215"
  viewBox="0 0 300 215"
  fill="none"
  xmlns="http://www.w3.org/2000/svg"
  role="img"
  aria-labelledby="descId"
>
  <title id="titleId"></title>
  <desc id="descId"></desc>
  <style>

  </style>



  <rect
    data-testid="card-bg"
    x="0.5"
    y="0.5"
    rx="4.5"
    height="99%"
    stroke="#e4e2e2"
    width="299"
    fill="#0d1117"
    stroke-opacity="0"
  />


<g
  data-testid="card-title"
  transform="translate(25, 35)"
>
  <g transform="translate(0, 0)">
<text
  x="0"
  y="0"
  class="header"
  data-testid="header"
>Most Used Languages</text>
</g>
</g>


  <g
    data-testid="main-card-body"
    transform="translate(0, 55)"
  >

<svg data-testid="lang-items" x="25">


<mask id="rect-mask">
<rect x="0" y="0" width="250" height="8" fill="white" rx="5"/>
</mask>

  <rect
    mask="url(#rect-mask)"
    data-testid="lang-progress"
    x="0"
    y="0"
    width="113.46"
    height="8"
    fill="#f1e05a"
  />

  <rect
    mask="url(#rect-mask)"
    data-testid="lang-progress"
    x="113.46"
    y="0"
    width="47.93"
    height="8"
    fill="#41b883"
  />

  <rect
    mask="url(#rect-mask)"
    data-testid="lang-progress"
    x="161.39"
    y="0"
    width="31.32"
    height="8"
    fill="#ff3e00"
  />

  <rect
    mask="url(#rect-mask)"
    data-testid="lang-progress"
    x="192.70999999999998"
    y="0"
    width="14.71"
    height="8"
    fill="#fcb32c"
  />

  <rect
    mask="url(#rect-mask)"
    data-testid="lang-progress"
    x="207.42"
    y="0"
    width="14.37"
    height="8"
    fill="#3572A5"
  />

  <rect
    mask="url(#rect-mask)"
    data-testid="lang-progress"
    x="221.79"
    y="0"
    width="14"
    height="8"
    fill="#4d41b1"
  />

  <rect
    mask="url(#rect-mask)"
    data-testid="lang-progress"
    x="235.79"
    y="0"
    width="18.91"
    height="8"
    fill="#ff5a03"
  />

  <rect
    mask="url(#rect-mask)"
    data-testid="lang-progress"
    x="244.7"
    y="0"
    width="12.85"
    height="8"
    fill="#3178c6"
  />

  <rect
    mask="url(#rect-mask)"
    data-testid="lang-progress"
    x="247.54999999999998"
    y="0"
    width="11.9"
    height="8"
    fill="#00ADD8"
  />

  <rect
    mask="url(#rect-mask)"
    data-testid="lang-progress"
    x="249.45"
    y="0"
    width="10.55"
    height="8"
    fill="#89e051"
  />


<g transform="translate(0, 25)">
<g transform="translate(0, 0)"><g transform="translate(0, 0)">
<g class="stagger" style="animation-delay: 450ms">
<circle cx="5" cy="6" r="5" fill="#f1e05a" />
<text data-testid="lang-name" x="15" y="10" class='lang-name'>
  JavaScript 45.38%
</text>
</g>
</g><g transform="translate(0, 25)">
<g class="stagger" style="animation-delay: 600ms">
<circle cx="5" cy="6" r="5" fill="#41b883" />
<text data-testid="lang-name" x="15" y="10" class='lang-name'>
  Vue 19.17%
</text>
</g>
</g><g transform="translate(0, 50)">
<g class="stagger" style="animation-delay: 750ms">
<circle cx="5" cy="6" r="5" fill="#ff3e00" />
<text data-testid="lang-name" x="15" y="10" class='lang-name'>
  Svelte 12.53%
</text>
</g>
</g><g transform="translate(0, 75)">
<g class="stagger" style="animation-delay: 900ms">
<circle cx="5" cy="6" r="5" fill="#fcb32c" />
<text data-testid="lang-name" x="15" y="10" class='lang-name'>
  MDX 5.88%
</text>
</g>
</g><g transform="translate(0, 100)">
<g class="stagger" style="animation-delay: 1050ms">
<circle cx="5" cy="6" r="5" fill="#3572A5" />
<text data-testid="lang-name" x="15" y="10" class='lang-name'>
  Python 5.75%
</text>
</g>
</g></g><g transform="translate(150, 0)"><g transform="translate(0, 0)">
<g class="stagger" style="animation-delay: 450ms">
<circle cx="5" cy="6" r="5" fill="#4d41b1" />
<text data-testid="lang-name" x="15" y="10" class='lang-name'>
  Fortran 5.60%
</text>
</g>
</g><g transform="translate(0, 25)">
<g class="stagger" style="animation-delay: 600ms">
<circle cx="5" cy="6" r="5" fill="#ff5a03" />
<text data-testid="lang-name" x="15" y="10" class='lang-name'>
  Astro 3.56%
</text>
</g>
</g><g transform="translate(0, 50)">
<g class="stagger" style="animation-delay: 750ms">
<circle cx="5" cy="6" r="5" fill="#3178c6" />
<text data-testid="lang-name" x="15" y="10" class='lang-name'>
  TypeScript 1.14%
</text>
</g>
</g><g transform="translate(0, 75)">
<g class="stagger" style="animation-delay: 900ms">
<circle cx="5" cy="6" r="5" fill="#00ADD8" />
<text data-testid="lang-name" x="15" y="10" class='lang-name'>
  Go 0.76%
</text>
</g>
</g><g transform="translate(0, 100)">
<g class="stagger" style="animation-delay: 1050ms">
<circle cx="5" cy="6" r="5" fill="#89e051" />
<text data-testid="lang-name" x="15" y="10" class='lang-name'>
  Shell 0.22%
</text>
</g>
</g></g>
</g>

</svg>

  </g>
</svg>
